<svg xmlns="http://www.w3.org/2000/svg" width="100" height="100" fill-rule="evenodd" clip-rule="evenodd" image-rendering="optimizeQuality" shape-rendering="geometricPrecision" text-rendering="geometricPrecision" viewBox="0 0 384 384"><rect width="384" height="384" fill="#369" rx="37" ry="37"/><path fill="#fff" fill-rule="nonzero" d="M142 59l100 0c22,0 42,9 56,24 14,14 23,34 23,56l0 106c0,22 -9,41 -23,56 -14,14 -34,23 -56,23l-100 0c-22,0 -42,-9 -56,-23 -15,-15 -24,-34 -24,-56l0 -106c0,-22 9,-42 24,-56 14,-15 34,-24 56,-24zm100 23l-100 0c-16,0 -30,6 -41,16 -10,11 -17,25 -17,41l0 106c0,15 7,30 17,40 11,11 25,17 41,17l100 0c16,0 30,-6 40,-17 11,-10 17,-25 17,-40l0 -106c0,-16 -6,-30 -17,-41 -10,-10 -24,-16 -40,-16z"/><path fill="#fff" fill-rule="nonzero" d="M192 123c19,0 36,7 48,20 12,12 20,29 20,48 0,19 -8,35 -20,48 -12,12 -29,20 -48,20 -19,0 -36,-8 -48,-20 -13,-13 -20,-29 -20,-48 0,-19 7,-36 20,-48 12,-13 29,-20 48,-20zm32 35c-8,-8 -20,-13 -32,-13 -13,0 -24,5 -33,13 -8,9 -13,20 -13,33 0,12 5,24 13,32 9,8 20,13 33,13 12,0 24,-5 32,-13 8,-8 14,-20 14,-32 0,-13 -6,-24 -14,-33z"/><circle cx="265" cy="119" r="16" fill="#fff"/></svg>